<?xml version="1.0" encoding="UTF-8"?>
<svg id="Layer_1" xmlns="http://www.w3.org/2000/svg" version="1.1" viewBox="0 0 3420.05 1028.57">
  <!-- Generator: Adobe Illustrator 29.8.1, SVG Export Plug-In . SVG Version: 2.1.1 Build 2)  -->
  <defs>
    <style>
      .st0 {
        fill: #00adee;
      }

      .st1 {
        fill: #fac8c4;
      }
    </style>
  </defs>
  <g>
    <path class="st1" d="M1114.12,201.54h-249.68c-3.18,0-6.04,1.94-7.19,4.93l-158.57,411.29c-2.44,6.32-11.3,6.59-14.16.46l-82.03-177.89c-1.98-4.33-5.21-7.93-9.08-10.42-3.92-2.49-8.48-3.87-13.32-3.87-9.45,0-18.12,5.39-22.22,13.97l-86.64,180.33c-2.81,5.81-11.11,5.81-13.88-.05l-134.17-282c-1.89-3.92-4.84-7.15-8.35-9.41-4.38-2.75-9.58-4-15.02-3.32-9.11,1.13-16.43,8.13-19.06,16.93l-46.42,154.97c-.97,3.27-3.97,5.49-7.38,5.49H34.54c-3.87-9.59-7.29-19.09-10.42-28.68C2.12,406.63.14,357.98,0,344.38v-4.43c0-36.38,4.47-186.46,123.62-277.53C189.69,11.9,261.66,1.94,300.3,0h3.5c27.62,0,89.96,4.15,153.17,44.96,74.46,48.09,103.28,116.75,112,140.4,8.62-23.65,37.49-92.31,111.95-140.4C744.14,4.15,806.43,0,834.1,0h3.5c38.64,1.94,110.61,11.9,176.69,62.43,52.19,39.88,82.4,91.11,99.83,139.11Z"/>
    <path class="st0" d="M1137.92,344.41c-.13,13.59-2.15,62.25-24.18,129.87-27.92,85.82-79.46,164.24-269.94,333.09-61.77,54.63-140.54,133.19-235.61,208.17-10.97,8.17-24.56,13.03-39.28,13.03s-28.31-4.86-39.23-13.03c-.86-.65-1.68-1.29-2.5-1.98-40.18-31.75-77.43-64.23-111.72-95.11-45.86-41.38-86.34-80.1-121.35-111.07-140.37-124.45-205.37-199.73-240.95-265.12h214.88c3.4,0,6.45-2.28,7.36-5.59l28.39-98.51c1.98-6.88,11.4-7.57,14.41-1.12l124.15,269.21c1.98,4.3,5.12,7.79,8.95,10.28,3.87,2.45,8.39,3.83,13.12,3.83,9.29,0,17.81-5.33,21.85-13.72l87.37-180.98c.26-.52.47-.95.86-1.38,3.18-3.83,8.86-3.83,12.09,0,.39.47.65.9.9,1.42l87.03,181.28c1.98,4.13,5.03,7.44,8.65,9.77,5.29,3.27,11.87,4.52,18.41,2.84,7.74-1.94,13.77-8.04,16.56-15.53l170.01-450.96c1.12-2.93,4-4.95,7.23-4.95h232.3c10.54,46.85,10.28,84.66,10.24,96.28Z"/>
  </g>
  <g>
    <path d="M1355.5,685.59c-2.31-1.23-3.95-3.88-4.9-7.89l-80.51-310.35c-.61-3.13-.95-5.17-.95-6.13,0-2.18.75-3.74,2.11-4.7,1.43-.88,3.68-1.36,6.81-1.36h24.77c5.31,0,9.19.68,11.5,2.11,2.31,1.36,3.95,4.29,4.9,8.64l48.66,203.15c1.57,7.83,3.95,22.8,7.08,44.92l1.36,11.23h1.91c3.13-23.41,6.4-42.13,9.8-56.15l55.74-199.41c1.23-4.36,2.99-7.28,5.38-8.64,2.31-1.43,5.99-2.11,10.96-2.11h19.19c5.04,0,8.71.68,11.03,2.11,2.31,1.36,4.15,4.29,5.38,8.64l54.79,199.89c3.4,13.07,6.87,31.65,10.28,55.67h1.91l1.84-12.18c3.47-24.02,5.65-38.38,6.53-43.01l48.25-204.11c1.23-4.36,3.06-7.28,5.38-8.64,2.31-1.43,5.99-2.11,11.03-2.11h21.98c3.13,0,5.38.48,6.81,1.36,1.36.95,2.11,2.52,2.11,4.7,0,.95-.34,2.99-.95,6.13l-80.99,309.87c-.95,4.02-2.52,6.74-4.7,8.17-2.18,1.43-5.58,2.11-10.28,2.11h-20.15c-4.36,0-7.69-.68-10.07-2.11-2.31-1.43-4.15-3.95-5.38-7.69l-56.15-208.33c-4.08-16.2-6.87-32.6-8.44-49.14h-2.31c-1.91,17.15-5.04,33.35-9.39,48.66l-56.62,208.33c-1.29,4.02-2.99,6.74-5.17,8.17-2.18,1.43-5.58,2.11-10.28,2.11h-19.67c-4.7,0-8.17-.61-10.55-1.91Z"/>
    <path d="M1708.45,684.91c-1.7-1.7-2.59-4.56-2.59-8.64v-323.96c0-4.36.88-7.28,2.59-8.85,1.7-1.57,4.63-2.38,8.64-2.38h19.67c4.08,0,6.87.82,8.44,2.38,1.57,1.57,2.31,4.49,2.31,8.85v96.92c5.65-2.52,14.5-4.83,26.68-7.01,12.18-2.18,25.32-3.27,39.34-3.27,31.85,0,55.54,7.96,71.12,23.89,15.65,15.86,23.41,38.79,23.41,68.81v144.62c0,4.36-.75,7.35-2.31,8.92-1.57,1.57-4.36,2.31-8.44,2.31h-19.67c-4.02,0-6.94-.88-8.64-2.59-1.7-1.7-2.59-4.56-2.59-8.64v-143.26c0-18.1-4.9-31.99-14.7-41.65-9.87-9.66-24.64-14.5-44.24-14.5-11.91,0-23.34,1.09-34.44,3.27-11.09,2.18-19.6,4.7-25.52,7.49v188.66c0,4.36-.75,7.35-2.31,8.92-1.57,1.57-4.36,2.31-8.44,2.31h-19.67c-4.02,0-6.94-.88-8.64-2.59Z"/>
    <path d="M1962.38,371.5c0-8.71,1.5-14.5,4.42-17.29,2.99-2.79,8.85-4.22,17.56-4.22h3.27c8.44,0,14.22,1.5,17.35,4.42,3.06,2.99,4.63,8.71,4.63,17.08v3.33c0,8.37-1.57,14.09-4.63,17.08-3.13,2.93-8.92,4.42-17.35,4.42h-3.27c-8.71,0-14.56-1.43-17.56-4.22-2.93-2.79-4.42-8.58-4.42-17.29v-3.33ZM1967.75,684.91c-1.7-1.7-2.59-4.56-2.59-8.64v-219.08c0-4.36.88-7.35,2.59-8.92,1.7-1.57,4.63-2.31,8.64-2.31h19.19c4.36,0,7.35.75,8.92,2.31,1.57,1.57,2.31,4.56,2.31,8.92v219.08c0,4.08-.75,6.94-2.31,8.64-1.57,1.7-4.56,2.59-8.92,2.59h-19.19c-4.02,0-6.94-.88-8.64-2.59Z"/>
    <path d="M2131.16,678.85c-14.56-5.78-25.05-15.79-31.65-29.95-6.53-14.22-9.8-34.44-9.8-60.64v-103.93h-38.86c-4.08,0-6.94-.75-8.64-2.31-1.77-1.57-2.59-4.42-2.59-8.44v-16.4c0-4.36.82-7.35,2.59-8.92,1.7-1.57,4.56-2.31,8.64-2.31h38.86v-44.92c0-4.36.82-7.35,2.59-8.92,1.7-1.57,4.56-2.31,8.64-2.31h19.19c4.36,0,7.35.75,8.92,2.31,1.5,1.57,2.31,4.56,2.31,8.92v44.92h61.32c4.36,0,7.35.75,8.92,2.31,1.57,1.57,2.31,4.56,2.31,8.92v16.4c0,4.02-.88,6.87-2.59,8.44-1.7,1.57-4.56,2.31-8.64,2.31h-61.32v102.5c0,17.15,1.91,30.08,5.65,38.66,3.74,8.58,9.8,14.43,18.24,17.56,8.44,3.06,20.76,4.63,36.96,4.63,4.36,0,7.35.88,8.92,2.59,1.57,1.7,2.31,4.76,2.31,9.12v16.4c0,4.36-.82,7.42-2.59,9.12-1.7,1.7-4.56,2.59-8.64,2.59-26.2,0-46.55-2.86-61.05-8.64Z"/>
    <path d="M2257.34,661.29c-17.22-17.49-25.79-41.18-25.79-71.12v-58.05c0-31.85,9.19-56.49,27.43-73.98,18.24-17.49,44.37-26.2,78.4-26.2s60.91,8.92,78.88,26.68c17.9,17.76,26.88,41.18,26.88,70.24v27.09c0,10.96-5.58,16.4-16.81,16.4h-153.06v22.46c0,17.83,5.38,31.72,16.13,41.65,10.75,10,26.27,15.04,46.55,15.04,30.63,0,52.47-10.96,65.54-32.8,3.4-4.7,6.87-7.01,10.28-7.01,2.18,0,4.83.95,7.96,2.79l12.66,6.6c4.7,2.18,7.01,5.44,7.01,9.8,0,2.18-.95,4.97-2.79,8.44-19.06,32.12-52.61,48.19-100.66,48.19-35.25,0-61.46-8.71-78.61-26.2ZM2401.49,540.08v-13.61c0-18.72-5.44-33.21-16.4-43.49-10.89-10.34-26.82-15.45-47.71-15.45s-36.82,5.1-47.78,15.45c-10.89,10.28-16.33,24.77-16.33,43.49v13.61h128.22Z"/>
    <path d="M2520.12,655.64c-22.66-21.17-33.96-50.5-33.96-88v-106.72c0-37.43,11.3-66.77,33.96-88,22.6-21.23,54.86-31.78,96.64-31.78,34.3,0,61.73,6.67,82.15,20.08,20.42,13.41,35.05,33.28,43.76,59.48.95,2.18,1.43,4.36,1.43,6.53s-.68,4.02-2.11,5.38c-1.43,1.43-3.68,2.72-6.81,4.02l-19.67,6.53c-3.74.61-5.92.95-6.53.95-2.18,0-3.88-.61-5.17-1.91-1.23-1.23-2.45-3.4-3.74-6.53-5.92-17.83-15.52-30.97-28.79-39.54-13.27-8.58-31.44-12.86-54.51-12.86-27.77,0-49,6.67-63.63,20.08-14.7,13.41-22.05,32.46-22.05,57.1v107.67c0,24.36,7.42,43.35,22.26,56.9,14.84,13.54,36,20.35,63.43,20.35,23.41,0,41.72-4.36,54.99-13.07,13.27-8.78,22.87-22.19,28.79-40.29,2.18-6.26,5.31-9.32,9.39-9.32,2.18,0,4.36.41,6.53,1.36l19.19,7.01c3.13,1.29,5.38,2.59,6.81,4.02,1.36,1.36,2.11,3.2,2.11,5.38,0,1.84-.48,4.08-1.43,6.53-8.71,26.54-23.21,46.62-43.49,60.16-20.35,13.54-47.91,20.35-82.9,20.35-41.79,0-74.05-10.62-96.64-31.85Z"/>
    <path d="M2808.89,663.61c-18.51-15.86-27.84-37.7-27.84-65.54v-76.7c0-27.84,9.32-49.68,27.84-65.54,18.58-15.93,44.24-23.89,77.04-23.89s59.28,7.96,77.72,23.89c18.38,15.86,27.56,37.7,27.56,65.54v76.7c0,27.84-9.19,49.68-27.56,65.54-18.44,15.93-44.37,23.89-77.72,23.89s-58.46-7.96-77.04-23.89ZM2839.58,636.04c11.23,9.05,26.68,13.54,46.35,13.54s35.59-4.49,46.82-13.54c11.23-9.05,16.81-21.71,16.81-37.98v-76.7c0-16.27-5.51-28.92-16.61-37.98-11.09-9.05-26.75-13.54-47.03-13.54s-35.12,4.49-46.35,13.54c-11.23,9.05-16.88,21.71-16.88,37.98v76.7c0,16.27,5.65,28.92,16.88,37.98Z"/>
    <path d="M3069.89,679.06c-14.97-5.58-25.45-13.82-31.37-24.57-5.92-10.75-8.85-24.57-8.85-41.38,0-18.44,3.47-32.87,10.48-43.35,7.01-10.41,18.1-17.97,33.28-22.66,15.11-4.7,35.32-7.01,60.57-7.01,11.57,0,26.2.75,44.03,2.31l9.8.95v-18.24c0-18.1-4.15-31.99-12.39-41.72-8.3-9.66-22.73-14.5-43.29-14.5-27.77,0-47.3,9.66-58.53,29.06-1.23,2.18-2.59,3.88-3.95,5.1-1.43,1.29-2.93,1.91-4.49,1.91-.61,0-2.79-.61-6.53-1.91l-14.97-6.06c-5.31-2.52-7.96-5.44-7.96-8.92,0-2.18.61-4.49,1.84-7.01,17.49-32.74,49.34-49.14,95.55-49.14,35.25,0,60.1,8.44,74.66,25.25,14.5,16.88,21.71,39.95,21.71,69.28v122.16c0,8.17-1.16,13.88-3.47,17.35-2.38,3.4-6.81,6.53-13.34,9.32-18.72,8.17-45.6,12.18-80.51,12.18-26.54,0-47.3-2.79-62.27-8.44ZM3083.71,643.05c7.96,6.53,22.87,9.8,44.71,9.8,23.07,0,40.43-2.04,51.93-6.06,3.13-.95,5.17-2.11,6.13-3.54.88-1.36,1.36-3.68,1.36-6.81v-59.89c-21.85-2.18-41.31-3.27-58.46-3.27-21.23,0-36.14,3.13-44.71,9.39-8.64,6.19-12.86,16.2-12.86,29.95s3.95,23.82,11.91,30.42Z"/>
    <path d="M3347.3,678.85c-14.56-5.78-25.05-15.79-31.65-29.95-6.53-14.22-9.8-34.44-9.8-60.64v-103.93h-38.86c-4.08,0-6.94-.75-8.64-2.31-1.77-1.57-2.59-4.42-2.59-8.44v-16.4c0-4.36.82-7.35,2.59-8.92,1.7-1.57,4.56-2.31,8.64-2.31h38.86v-44.92c0-4.36.82-7.35,2.59-8.92,1.7-1.57,4.56-2.31,8.64-2.31h19.19c4.36,0,7.35.75,8.92,2.31,1.5,1.57,2.31,4.56,2.31,8.92v44.92h61.32c4.36,0,7.35.75,8.92,2.31,1.57,1.57,2.31,4.56,2.31,8.92v16.4c0,4.02-.88,6.87-2.59,8.44-1.7,1.57-4.56,2.31-8.64,2.31h-61.32v102.5c0,17.15,1.91,30.08,5.65,38.66,3.74,8.58,9.8,14.43,18.24,17.56,8.44,3.06,20.76,4.63,36.96,4.63,4.36,0,7.35.88,8.92,2.59,1.57,1.7,2.31,4.76,2.31,9.12v16.4c0,4.36-.82,7.42-2.59,9.12-1.7,1.7-4.56,2.59-8.64,2.59-26.2,0-46.55-2.86-61.05-8.64Z"/>
  </g>
</svg>